<svg width="53" height="57" viewBox="0 0 53 57" fill="none" xmlns="http://www.w3.org/2000/svg">
<g clip-path="url(#clip0_20_633)">
<g clip-path="url(#clip1_20_633)">
<path d="M5.38989 -6H47.6462C49.7808 -6 51.8281 -5.152 53.3375 -3.64256C54.847 -2.13311 55.695 -0.0858645 55.695 2.04881V36.2563C55.695 38.3909 54.847 40.4382 53.3375 41.9476C51.8281 43.4571 49.7808 44.3051 47.6462 44.3051H13.4387C11.304 44.3051 9.25678 43.4571 7.74734 41.9476C6.23789 40.4382 5.38989 38.3909 5.38989 36.2563V-6Z" fill="#663399"/>
<path d="M23.404 40.2805C20.1729 40.2775 18.1793 38.458 18.2176 35.1097V26.6388C18.2176 24.9415 18.7146 23.6507 19.7086 22.7673C21.494 21.0474 25.6361 20.9428 27.3847 22.7935C28.4622 23.7437 28.8687 25.685 28.7721 27.4965H25.0636C25.0918 26.7847 25.054 25.7066 24.6355 25.3007C24.0917 24.5647 22.6555 24.6512 22.2757 25.4174C22.0423 25.8329 21.9256 26.4481 21.9256 27.2621V34.6157C21.9256 36.1575 22.4613 36.9373 23.5333 36.9544C24.0344 36.9544 24.4152 36.7723 24.6742 36.4086C25.0359 35.9769 25.0923 35.0211 25.0631 34.3299H28.7716C29.0251 37.8548 26.9445 40.3243 23.4035 40.2805H23.404ZM35.1774 40.2805C31.5972 40.3298 29.9955 37.7824 30.0946 34.3299H33.5953C33.4983 35.8351 34.0154 37.2059 35.2549 37.1103C35.8078 37.1103 36.1971 36.9373 36.422 36.5907C36.8496 35.9573 36.9296 34.1282 36.3184 33.4204C35.8913 32.7388 34.3549 32.1371 33.5435 31.7317C32.385 31.1773 31.5509 30.5193 31.0409 29.7567C29.8904 28.0644 29.997 24.3499 31.6113 22.8448C33.1798 20.9875 37.2762 20.902 38.8462 22.8061C39.8146 23.7875 40.2376 25.7187 40.1556 27.496H36.7842C36.8129 26.7656 36.7439 25.5869 36.4602 25.1573C36.2615 24.7936 35.8852 24.6115 35.3324 24.6115C34.3469 24.6115 33.8544 25.2006 33.8544 26.3782C33.865 27.6288 34.3524 28.1419 35.4883 28.6646C36.9592 29.2361 38.8296 30.212 39.5077 31.3931C41.53 34.992 40.1425 40.4893 35.1769 40.2795L35.1774 40.2805ZM46.484 40.2805C42.9038 40.3298 41.3021 37.7824 41.4012 34.3299H44.9019C44.8048 35.8351 45.322 37.2059 46.5615 37.1103C47.1143 37.1103 47.5037 36.9373 47.7286 36.5907C48.1561 35.9573 48.2361 34.1282 47.6249 33.4204C47.1978 32.7388 45.6615 32.1371 44.8501 31.7317C43.6916 31.1773 42.8575 30.5193 42.3474 29.7567C41.1969 28.0644 41.3036 24.3499 42.9179 22.8448C44.4864 20.9875 48.5827 20.902 50.1528 22.8061C51.1211 23.7875 51.5442 25.7187 51.4622 27.496H48.0908C48.1194 26.7656 48.0505 25.5869 47.7668 25.1573C47.5681 24.7936 47.1918 24.6115 46.6389 24.6115C45.6535 24.6115 45.161 25.2006 45.161 26.3782C45.1715 27.6288 45.659 28.1419 46.7949 28.6646C48.2658 29.2361 50.1362 30.212 50.8143 31.3931C52.8365 34.992 51.4491 40.4893 46.4835 40.2795L46.484 40.2805Z" fill="white"/>
</g>
</g>
<defs>
<clipPath id="clip0_20_633">
<rect width="53" height="57" fill="white"/>
</clipPath>
<clipPath id="clip1_20_633">
<rect width="50.3051" height="50.3051" fill="white" transform="translate(5.38989 -6)"/>
</clipPath>
</defs>
</svg>
