<svg width="64" height="64" viewBox="0 0 64 64" fill="none" xmlns="http://www.w3.org/2000/svg">
<path d="M29.4534 8.3208L30.8404 10.9259C31.1522 11.4066 31.49 11.8321 31.8879 12.2284C33.0545 13.3804 34.1419 14.61 35.1427 15.9086C37.4927 18.9945 39.0779 22.4213 40.2099 26.1275C40.8888 28.3916 41.2574 30.714 41.285 33.0625C41.3987 40.0835 38.9918 46.1122 34.139 51.1226C33.3496 51.9171 32.4968 52.6461 31.5891 53.3022C31.1084 53.3022 30.881 52.9335 30.6829 52.594C30.322 51.9646 30.0819 51.2733 29.9747 50.5558C29.8042 49.7064 29.6921 48.857 29.7474 47.9799V47.5837C29.7084 47.4992 29.2845 8.52057 29.4534 8.3208Z" fill="#599636"/>
<path d="M29.4536 8.23459C29.3967 8.1209 29.3399 8.20698 29.283 8.2622C29.3106 8.83063 29.1125 9.33736 28.8023 9.82134C28.4612 10.3021 28.0097 10.6708 27.5566 11.067C25.0392 13.2466 23.0578 15.8793 21.4711 18.8238C19.3597 22.7866 18.2716 27.0337 17.963 31.5048C17.8217 33.1176 18.4729 38.8085 18.9813 40.4504C20.3683 44.8095 22.8597 48.4622 26.0868 51.6324C26.8793 52.3958 27.7271 53.1039 28.6041 53.7844C28.8591 53.7844 28.8867 53.557 28.9452 53.3881C29.057 53.0267 29.1422 52.6575 29.2002 52.2837L29.7686 48.0383L29.4536 8.23459Z" fill="#6CAC48"/>
<path d="M30.8404 55.0269C30.8972 54.3772 31.2091 53.838 31.5485 53.3004C31.2075 53.1592 30.9541 52.8782 30.7559 52.5647C30.5851 52.2679 30.4437 51.9552 30.3337 51.6309C29.9374 50.442 29.8529 49.1947 29.7393 47.9799V47.2441C29.598 47.3578 29.5687 48.3193 29.5687 48.4622C29.4861 49.7462 29.3157 51.023 29.0588 52.2838C28.9743 52.7937 28.9175 53.3021 28.604 53.7552C28.604 53.812 28.604 53.8689 28.6316 53.9533C29.1416 55.454 29.2813 56.9823 29.3673 58.5398V59.1083C29.3673 59.7871 29.3397 59.6442 29.9033 59.8716C30.1307 59.9561 30.384 59.9853 30.6114 60.1542C30.7819 60.1542 30.8095 60.0129 30.8095 59.8992L30.7251 58.9653V56.3603C30.6975 55.9055 30.7819 55.454 30.8388 55.0285L30.8404 55.0269Z" fill="#C2BFBF"/>
</svg>
