<svg width="48" height="53" viewBox="0 0 48 53" fill="none" xmlns="http://www.w3.org/2000/svg">
<path d="M21.4736 0.00036179C19.6813 0.00874383 17.9698 0.162594 16.4638 0.430818C12.0274 1.21971 11.2219 2.87093 11.2219 5.91606V9.93776H21.7057V11.2783H11.2219H7.28738C4.24049 11.2783 1.57254 13.1216 0.738037 16.6283C-0.224549 20.6477 -0.267245 23.1559 0.738037 27.3528C1.48327 30.4768 3.26297 32.7028 6.30987 32.7028H9.91445V27.8816C9.91445 24.3987 12.9084 21.3264 16.4638 21.3264H26.9354C29.8504 21.3264 32.1773 18.9107 32.1773 15.9641V5.91606C32.1773 3.05632 29.7805 0.908098 26.9354 0.430818C25.1345 0.129066 23.2658 -0.00802037 21.4736 0.00036179ZM15.804 3.23493C16.8869 3.23493 17.7712 4.13959 17.7712 5.25193C17.7712 6.36033 16.8869 7.25663 15.804 7.25663C14.7172 7.25663 13.8367 6.36033 13.8367 5.25193C13.8367 4.13959 14.7172 3.23493 15.804 3.23493Z" fill="url(#paint0_linear_56_656)"/>
<path d="M33.4848 11.2783V15.9641C33.4848 19.597 30.4248 22.6547 26.9355 22.6547H16.4638C13.5955 22.6547 11.2219 25.1256 11.2219 28.0169V38.065C11.2219 40.9248 13.6925 42.6068 16.4638 43.4273C19.7824 44.4094 22.9648 44.5869 26.9355 43.4273C29.5748 42.6581 32.1774 41.1101 32.1774 38.065V34.0433H21.7058V32.7028H32.1774H37.4193C40.4662 32.7028 41.6016 30.5636 42.6612 27.3528C43.7558 24.0473 43.7092 20.8686 42.6612 16.6283C41.9082 13.5753 40.4701 11.2783 37.4193 11.2783H33.4848ZM27.5953 36.7244C28.6821 36.7244 29.5625 37.6207 29.5625 38.7291C29.5625 39.8415 28.6821 40.7461 27.5953 40.7461C26.5124 40.7461 25.628 39.8415 25.628 38.7291C25.628 37.6207 26.5124 36.7244 27.5953 36.7244Z" fill="url(#paint1_linear_56_656)"/>
<path opacity="0.44382" d="M21.8246 53.0002C29.5838 53.0002 35.8738 51.7726 35.8738 50.2582C35.8738 48.7438 29.5838 47.5161 21.8246 47.5161C14.0654 47.5161 7.77539 48.7438 7.77539 50.2582C7.77539 51.7726 14.0654 53.0002 21.8246 53.0002Z" fill="url(#paint2_radial_56_656)"/>
<defs>
<linearGradient id="paint0_linear_56_656" x1="-1.30551e-07" y1="-1.14147e-07" x2="24.3069" y2="20.5784" gradientUnits="userSpaceOnUse">
<stop stop-color="#5A9FD4"/>
<stop offset="1" stop-color="#306998"/>
</linearGradient>
<linearGradient id="paint1_linear_56_656" x1="27.3434" y1="38.391" x2="18.5954" y2="26.2121" gradientUnits="userSpaceOnUse">
<stop stop-color="#FFD43B"/>
<stop offset="1" stop-color="#FFE873"/>
</linearGradient>
<radialGradient id="paint2_radial_56_656" cx="0" cy="0" r="1" gradientUnits="userSpaceOnUse" gradientTransform="translate(21.8246 50.2582) rotate(-90) scale(2.74206 11.9743)">
<stop stop-color="#B8B8B8" stop-opacity="0.498039"/>
<stop offset="1" stop-color="#7F7F7F" stop-opacity="0"/>
</radialGradient>
</defs>
</svg>
