<svg width="45" height="43" viewBox="0 0 45 43" fill="none" xmlns="http://www.w3.org/2000/svg">
<path d="M22.3192 25.7304C24.578 25.7304 26.4091 23.7255 26.4091 21.2524C26.4091 18.7793 24.578 16.7744 22.3192 16.7744C20.0604 16.7744 18.2292 18.7793 18.2292 21.2524C18.2292 23.7255 20.0604 25.7304 22.3192 25.7304Z" fill="#00D8FF"/>
<path fill-rule="evenodd" clip-rule="evenodd" d="M22.6197 11.8137C29.593 11.8657 37.2011 12.4227 42.4236 17.5217C42.5771 17.6717 42.725 17.8277 42.8693 17.9887C44.1014 19.3637 44.7453 21.5837 43.7507 23.4107C41.7103 27.1617 37.1473 28.7977 32.7294 29.8047C26.1223 31.3107 19.2138 31.3227 12.6095 29.9967C8.80908 29.2327 4.92282 27.8937 2.22208 25.0927C1.17083 24.0027 0.272102 22.5687 0.412756 20.9727C0.641091 18.3907 2.90343 16.7337 4.80774 15.6117C10.0969 12.4957 16.5414 11.7987 22.6197 11.8137ZM22.1137 12.9867C15.5157 13.0357 8.37433 13.4967 3.27973 18.1157C3.10163 18.2767 2.92992 18.4457 2.7646 18.6227C2.65774 18.7367 2.55454 18.8557 2.45498 18.9777C1.56082 20.0777 1.25303 21.8447 2.09695 23.1657C2.94636 24.4947 4.23599 25.4537 5.56399 26.2357C10.5307 29.1597 16.3998 29.6787 22.1219 29.7007C27.9152 29.7237 33.8894 29.1457 39.0068 26.2487C41.0454 25.0937 43.3397 23.3977 43.2584 21.2137C43.1835 19.2097 41.3988 17.9717 40.0626 17.0877C39.701 16.8487 39.3292 16.6277 38.952 16.4197C33.872 13.6327 27.9189 12.9727 22.1137 12.9867Z" fill="#00D8FF"/>
<path fill-rule="evenodd" clip-rule="evenodd" d="M31.5566 0.000603926C34.1075 0.0716039 35.4291 3.4296 35.6036 5.9096C35.6383 6.4026 35.6511 6.8976 35.6456 7.3926C35.6401 7.9286 35.6136 8.4646 35.5707 8.9986C35.0327 15.6106 32.2754 21.9076 29.0285 27.7226C25.8528 33.4106 21.9802 39.0826 16.7121 41.7186C14.9703 42.5906 12.8989 43.1286 11.3572 42.1556C9.2437 40.8226 9.01263 37.7046 9.0519 35.3396C9.06195 34.7586 9.09665 34.1776 9.15145 33.5986C9.96341 25.0386 13.9264 16.9296 18.8858 9.9436C21.7793 5.8676 25.2217 1.8246 29.5098 0.360604C30.1847 0.129604 30.7209 -0.0103961 31.5566 0.000603926ZM31.4342 1.1726C28.4393 1.2246 25.7505 3.6546 23.3694 6.1796C17.1094 12.8166 12.4961 21.6436 10.6402 30.9006C10.4968 31.6176 10.3762 32.3396 10.2876 33.0666C10.2191 33.6296 10.1689 34.1956 10.1424 34.7636C10.1214 35.2156 10.1141 35.6686 10.1269 36.1216C10.136 36.4756 10.157 36.8296 10.1927 37.1816C10.2191 37.4506 10.2548 37.7186 10.2995 37.9846C10.3333 38.1816 10.3726 38.3776 10.4183 38.5726C10.4557 38.7306 10.4977 38.8876 10.5452 39.0436C10.9188 40.2766 11.8814 41.4546 13.1738 41.4936C16.1887 41.5836 19.0274 39.1766 21.4815 36.5606C25.7898 31.9696 29.0001 26.2006 31.5082 20.1366C33.5321 15.2406 35.3835 9.9186 34.3496 4.5296C34.3103 4.3256 34.2646 4.1236 34.2126 3.9236C34.1696 3.7606 34.1212 3.5996 34.0683 3.4406C33.6664 2.2416 32.7211 1.1696 31.4342 1.1726Z" fill="#00D8FF"/>
<path fill-rule="evenodd" clip-rule="evenodd" d="M13.2844 0.0445225C16.5396 0.113522 19.4632 2.53252 22.0589 5.24152C26.7955 10.1845 30.289 16.4725 32.9395 23.0905C34.9927 28.2175 36.8815 33.9725 35.2028 39.3825C34.6739 41.0875 33.3359 42.6475 31.5521 42.6875C28.2815 42.7595 25.2501 40.1555 22.6197 37.3525C16.0208 30.3185 11.1217 21.0325 9.44295 11.1845C9.32239 10.4805 9.22648 9.77052 9.16072 9.05752C9.10684 8.47552 9.07304 7.89052 9.06391 7.30552C9.0566 6.83352 9.06574 6.36152 9.09588 5.89152C9.11597 5.57752 9.1452 5.26552 9.18447 4.95452C9.22192 4.66252 9.26941 4.37152 9.32878 4.08352C9.36805 3.89252 9.41189 3.70352 9.46213 3.51552C9.95442 1.67252 11.2349 0.0305225 13.2844 0.0445225ZM13.1612 1.21752C11.255 1.26352 10.3828 3.72452 10.2074 5.45152C10.1718 5.80552 10.1499 6.16252 10.1398 6.51952C10.127 6.97552 10.1325 7.43252 10.1535 7.88852C10.4531 14.4875 13.1474 20.8675 16.3989 26.7095C19.4604 32.2095 23.1576 37.6875 28.2431 40.5035C29.7118 41.3165 31.4964 41.9555 32.7651 41.1875C34.3561 40.2235 34.5516 37.9265 34.6365 36.2145C34.6593 35.7485 34.6621 35.2805 34.6484 34.8135C34.6319 34.2275 34.5899 33.6425 34.5269 33.0605C33.9405 27.6235 31.7412 22.4785 29.2149 17.6165C26.0712 11.5685 22.2196 5.54052 16.7688 2.39152C15.64 1.73952 14.4179 1.20652 13.1612 1.21752Z" fill="#00D8FF"/>
</svg>
