<svg width="40" height="25" viewBox="0 0 40 25" fill="none" xmlns="http://www.w3.org/2000/svg">
<path d="M9.98788 8.05C11.3171 2.68333 14.6402 0 19.9572 0C27.9327 0 28.9296 6.0375 32.9173 7.04375C35.5758 7.71458 37.902 6.70833 39.8959 4.025C38.5666 9.39166 35.2435 12.075 29.9265 12.075C21.9511 12.075 20.9541 6.0375 16.9664 5.03125C14.3079 4.36042 11.9817 5.36666 9.98788 8.05ZM0.0185547 20.125C1.3478 14.7583 4.67091 12.075 9.98788 12.075C17.9633 12.075 18.9603 18.1125 22.948 19.1187C25.6065 19.7896 27.9327 18.7833 29.9265 16.1C28.5973 21.4667 25.2742 24.15 19.9572 24.15C11.9817 24.15 10.9848 18.1125 6.99709 17.1062C4.3386 16.4354 2.01242 17.4417 0.0185547 20.125Z" fill="#44A8B3"/>
</svg>
