<svg width="49" height="48" viewBox="0 0 49 48" fill="none" xmlns="http://www.w3.org/2000/svg">
<g clip-path="url(#clip0_20_677)">
<path d="M47.5383 21.8811L26.7751 1.11899C25.5801 -0.0767726 23.6407 -0.0767726 22.4442 1.11899L18.1326 5.43057L23.6021 10.9C24.8731 10.4705 26.3306 10.7586 27.3437 11.7718C28.3617 12.7915 28.6478 14.2614 28.2079 15.5365L33.479 20.8077C34.7542 20.3684 36.2257 20.6526 37.2442 21.6728C38.6677 23.0958 38.6677 25.402 37.2442 26.8259C35.8203 28.25 33.5141 28.25 32.0895 26.8259C31.0187 25.7541 30.7542 24.1816 31.2962 22.8625L26.3806 17.9468L26.38 30.8828C26.7363 31.059 27.0618 31.2918 27.3437 31.572C28.7673 32.995 28.7673 35.3014 27.3437 36.7264C25.9199 38.1497 23.6125 38.1497 22.1907 36.7264C20.7671 35.3014 20.7671 32.9951 22.1907 31.5722C22.5318 31.2309 22.9372 30.9606 23.3834 30.7769V17.7203C22.9366 17.5379 22.5309 17.2675 22.1907 16.9251C21.1121 15.848 20.8528 14.2655 21.4054 12.9412L16.0138 7.54902L1.77688 21.785C0.580559 22.9819 0.580559 24.9215 1.77688 26.1174L22.5404 46.8799C23.7358 48.0758 25.6748 48.0758 26.8717 46.8799L47.5381 26.2138C48.7341 25.0175 48.7343 23.0768 47.5383 21.8811Z" fill="#DE4C36"/>
</g>
<defs>
<clipPath id="clip0_20_677">
<rect width="47.5556" height="47.5556" fill="white" transform="translate(0.879639 0.222168)"/>
</clipPath>
</defs>
</svg>
