<svg width="44" height="44" viewBox="0 0 44 44" fill="none" xmlns="http://www.w3.org/2000/svg">
<g clip-path="url(#clip0_20_640)">
<path d="M37.4347 0H7.15502C3.57151 0 0.666504 2.93813 0.666504 6.5625V37.1875C0.666504 40.8119 3.57151 43.75 7.15502 43.75H37.4347C41.0182 43.75 43.9233 40.8119 43.9233 37.1875V6.5625C43.9233 2.93813 41.0182 0 37.4347 0Z" fill="#F7DF1E"/>
<path d="M28.0399 31.6162C28.8847 33.0688 30.0675 34.0942 32.0107 34.0942C33.7004 34.0942 34.7987 33.2397 34.7987 32.0435C34.7987 30.6763 33.7004 30.1636 31.8417 29.3091L30.8279 28.8818C27.8709 27.6001 25.9277 26.062 25.9277 22.7295C25.9277 19.6533 28.2088 17.2607 31.8417 17.2607C34.4608 17.2607 36.3195 18.2007 37.5868 20.5933L34.4608 22.644C33.7849 21.3623 33.0245 20.8496 31.8417 20.8496C30.6589 20.8496 29.8986 21.6187 29.8986 22.644C29.8986 23.8403 30.6589 24.353 32.4331 25.1221L33.447 25.5493C36.9109 27.0874 38.8541 28.54 38.8541 32.0435C38.8541 35.7178 35.9815 37.7686 32.0952 37.7686C28.2933 37.7686 25.8432 35.9741 24.6604 33.5815L28.0399 31.6162ZM13.6773 31.958C14.3532 33.0688 14.8601 34.0942 16.2963 34.0942C17.6481 34.0942 18.493 33.5815 18.493 31.5308V17.3462H22.5483V31.3599C22.5483 35.6323 20.0982 37.5122 16.4653 37.5122C13.1704 37.5122 11.3117 35.8032 10.3823 33.7524L13.6773 31.958Z" fill="black"/>
</g>
<defs>
<clipPath id="clip0_20_640">
<rect width="43.2568" height="43.75" fill="white" transform="translate(0.666504)"/>
</clipPath>
</defs>
</svg>
