<svg width="45" height="45" viewBox="0 0 45 45" fill="none" xmlns="http://www.w3.org/2000/svg">
<path d="M22.7166 44.8298C34.9814 44.8298 44.9239 34.7943 44.9239 22.4149C44.9239 10.0355 34.9814 0 22.7166 0C10.4518 0 0.509277 10.0355 0.509277 22.4149C0.509277 34.7943 10.4518 44.8298 22.7166 44.8298Z" fill="#0535C1"/>
<path d="M37.3533 15.7068H36.025C35.364 13.8007 33.4358 12.655 31.4638 12.9965C29.4918 13.338 28.0524 15.0669 28.0586 17.0863C28.0591 19.3725 29.8951 21.2255 32.1599 21.2261H37.3534C38.828 21.1765 39.9979 19.9556 39.9979 18.4664C39.9979 16.9772 38.828 15.7564 37.3533 15.7068Z" fill="#EAEAEA"/>
<path d="M40.0878 18.5003V18.4666C40.0873 16.9425 38.8633 15.7072 37.3533 15.7065H35.9866V15.7758H37.3533C38.8495 15.7757 40.068 16.9893 40.0878 18.4992V18.5003Z" fill="white" fill-opacity="0.2"/>
<path d="M32.1599 12.9488L34.3766 20.0156C35.1175 19.2646 36.2602 18.2294 36.2602 17.0873C36.2597 14.8014 34.4237 12.9483 32.1589 12.9478L32.1599 12.9488Z" fill="#E1E1E1"/>
<path d="M32.1599 21.2271C34.425 21.2271 36.2613 19.3737 36.2613 17.0874C36.2613 14.8011 34.425 12.9478 32.1599 12.9478C29.8948 12.9478 28.0586 14.8011 28.0586 17.0874C28.0586 19.3737 29.8948 21.2271 32.1599 21.2271Z" fill="#EEEEEE"/>
<path d="M32.1598 13.0169C34.4114 13.018 36.2413 14.8504 36.2601 17.123V17.0894C36.261 14.8034 34.4257 12.9496 32.1609 12.9487C29.8961 12.9479 28.0595 14.8003 28.0586 17.0863V17.1199C28.0791 14.8482 29.9091 13.0174 32.1598 13.0169Z" fill="white" fill-opacity="0.2"/>
<path d="M37.3533 21.1568H32.1589C29.9074 21.1557 28.0774 19.3232 28.0586 17.0508V17.0844C28.0596 19.37 29.8954 21.2224 32.1598 21.2229H37.3534C38.863 21.2224 40.0868 19.9877 40.0879 18.464V18.4303C40.0691 19.9413 38.8504 21.1563 37.3533 21.1568Z" fill="#212121" fill-opacity="0.1"/>
<path d="M16.6602 9.4248H28.2685V19.6134H16.6602V9.4248Z" fill="#FFF176"/>
<path d="M15.3984 24.9619H29.278V38.9712H15.3984V24.9619Z" fill="white"/>
<path d="M30.7919 18.5944H32.8109V22.6698H12.6223V18.5944H14.6412V10.4435L22.7166 5.34912L30.7919 10.4434V18.5944ZM26.7542 18.5944V12.7023L22.7166 10.1552L18.6789 12.7023V18.5944H26.7542Z" fill="#F4481E"/>
<path d="M11.7261 41.8965L15.146 18.5942H30.2874L33.7073 41.8965C30.3598 43.8246 26.571 44.8358 22.7167 44.8298C18.8625 44.8358 15.0736 43.8246 11.7261 41.8965ZM27.238 25.6253L17.7392 28.7401L16.5845 36.6055L28.2858 32.7674L27.238 25.6253Z" fill="#F4481E"/>
<path d="M16.66 20.8864H15.1267C14.3607 18.6909 12.1378 17.3728 9.86482 17.7665C7.59187 18.1604 5.93161 20.1512 5.93482 22.4789C5.93655 25.116 8.05441 27.2532 10.6671 27.2543H16.66C18.3711 27.2105 19.7356 25.798 19.7356 24.0704C19.7356 22.3427 18.3711 20.9301 16.66 20.8864Z" fill="#FAFAFA"/>
<path d="M19.8144 24.1084V24.0708C19.8144 22.3131 18.4013 20.8867 16.66 20.8867H15.0823V20.9662H16.66C18.3859 20.9667 19.7913 22.3665 19.8144 24.1084Z" fill="white" fill-opacity="0.2"/>
<path d="M10.6671 17.7027L13.2239 25.8556C14.0789 24.9896 15.3972 23.7954 15.3972 22.4771C15.3955 19.8404 13.2783 17.7034 10.666 17.7017L10.6671 17.7027Z" fill="#E1E1E1"/>
<path d="M10.6672 27.2554C13.2807 27.2554 15.3994 25.1169 15.3994 22.479C15.3994 19.8411 13.2807 17.7026 10.6672 17.7026C8.05372 17.7026 5.93506 19.8411 5.93506 22.479C5.93506 25.1169 8.05372 27.2554 10.6672 27.2554Z" fill="white"/>
<path d="M10.6671 17.7821C13.2648 17.7837 15.3761 19.8978 15.3983 22.5198V22.4821C15.3985 21.8549 15.2763 21.2338 15.0387 20.6543C14.8011 20.0748 14.4527 19.5481 14.0134 19.1045C13.5742 18.6609 13.0527 18.3089 12.4787 18.0687C11.9047 17.8285 11.2894 17.7048 10.6681 17.7046C10.0467 17.7044 9.43134 17.8277 8.85719 18.0676C8.28303 18.3074 7.7613 18.659 7.32178 19.1023C6.43412 19.9977 5.93522 21.2123 5.93481 22.479V22.5167C5.95815 19.8953 8.06984 17.7826 10.6671 17.7821Z" fill="white" fill-opacity="0.2"/>
<path d="M16.66 27.1752H10.666C8.06828 27.1736 5.95702 25.0594 5.93481 22.4375V22.4751C5.93594 25.1127 8.05405 27.2505 10.6671 27.2516H16.66C18.4013 27.2516 19.8144 25.8252 19.8144 24.0677V24.029C19.7934 25.7724 18.3874 27.1747 16.66 27.1752Z" fill="#212121" fill-opacity="0.1"/>
<path d="M22.7166 0.234306C34.9428 0.234306 44.8584 10.2059 44.922 22.532L44.9239 22.4149C44.9239 10.0357 34.9811 0 22.7166 0C10.4521 0 0.509277 10.0357 0.509277 22.4149C0.509277 22.4536 0.512314 22.4913 0.512314 22.532C0.574858 10.2069 10.4884 0.234306 22.7166 0.234306Z" fill="white" fill-opacity="0.2"/>
<path d="M44.922 22.2979C44.8573 34.624 34.9428 44.5956 22.7166 44.5956C10.4895 44.5956 0.574858 34.623 0.512314 22.2979C0.512314 22.3386 0.509277 22.3763 0.509277 22.415C0.509277 34.7941 10.4521 44.8299 22.7166 44.8299C34.9811 44.8299 44.9239 34.7941 44.9239 22.415L44.922 22.2979Z" fill="#263238" fill-opacity="0.2"/>
</svg>
