<svg width="46" height="50" viewBox="0 0 46 50" fill="none" xmlns="http://www.w3.org/2000/svg">
<path fill-rule="evenodd" clip-rule="evenodd" d="M26.9087 0C26.5792 0 26.2732 0.0778373 25.9907 0.181553C26.5911 0.622297 26.9205 1.20568 27.0854 1.86669C27.0972 1.95757 27.1207 2.02236 27.1324 2.11304C27.1442 2.19088 27.156 2.26851 27.156 2.34635C27.203 3.48723 26.8852 3.62966 26.6615 4.30392C26.3202 5.17257 26.4144 6.10581 26.8264 6.8577C26.8617 6.94838 26.9087 7.0521 26.9677 7.14277C26.5204 3.86318 29.0038 3.37047 29.4628 2.34635C29.4981 1.45183 28.8271 0.855608 28.2977 0.440743C27.7913 0.103716 27.3324 0 26.9087 0ZM30.6516 0.738852C30.6042 1.03716 30.6398 0.959324 30.6279 1.1148C30.6163 1.21851 30.6163 1.34811 30.6044 1.45183C30.5809 1.55554 30.5574 1.65926 30.5221 1.76297C30.4984 1.86669 30.4633 1.97041 30.4279 2.07412C30.3808 2.17784 30.3456 2.26872 30.2986 2.37223C30.2631 2.42419 30.2396 2.47595 30.2043 2.52791L30.1336 2.64446C30.0748 2.73534 30.0159 2.82601 29.9571 2.90385C29.8864 2.98169 29.8278 3.07236 29.7453 3.13716V3.1502C29.6746 3.215 29.6041 3.29264 29.5216 3.35763C29.2745 3.56487 28.992 3.72054 28.733 3.91493C28.6507 3.97973 28.5683 4.03169 28.4977 4.10953C28.4153 4.17432 28.3447 4.23912 28.2742 4.31676C28.1917 4.39459 28.1328 4.47243 28.0622 4.56311C28.0033 4.64095 27.9329 4.73162 27.8857 4.8225C27.8269 4.91318 27.768 5.00385 27.7209 5.09473C27.6739 5.19844 27.6385 5.28912 27.5915 5.39284C27.5562 5.49655 27.5209 5.58743 27.4974 5.69095C27.4659 5.79775 27.4384 5.9059 27.4149 6.01513C27.4032 6.06689 27.4032 6.13169 27.3914 6.18365C27.3795 6.23541 27.3795 6.28736 27.3679 6.33912C27.3679 6.44284 27.356 6.55959 27.356 6.66331C27.356 6.74095 27.356 6.81878 27.3679 6.89662C27.3679 7.00034 27.3797 7.10405 27.4032 7.22061C27.415 7.32433 27.4385 7.42804 27.462 7.53176C27.4974 7.63547 27.5209 7.73919 27.5562 7.84271C27.5799 7.9077 27.615 7.9725 27.6385 8.02446L24.9316 6.87054C24.4726 6.72811 24.0253 6.59831 23.5663 6.48176L22.8249 6.28716C22.1166 6.13163 21.4017 6.01486 20.6829 5.9373C20.6593 5.9373 20.6474 5.92426 20.6239 5.92426C19.9178 5.84642 19.2233 5.8077 18.5171 5.8077C17.9993 5.8077 17.4815 5.83358 16.9754 5.8725C16.2574 5.92426 15.5394 6.02797 14.8216 6.15757C14.6449 6.18365 14.4683 6.22237 14.292 6.26128C13.927 6.33912 13.574 6.4298 13.2326 6.52067L12.703 6.67615C12.5263 6.75399 12.3617 6.84466 12.1968 6.9225L11.8085 7.11709C11.7848 7.12993 11.7614 7.12993 11.7497 7.14277C11.632 7.20757 11.526 7.25953 11.42 7.32433C11.3849 7.33737 11.3612 7.3504 11.3377 7.36324C11.2084 7.42804 11.0789 7.50568 10.9729 7.57068C10.8906 7.60959 10.8081 7.66135 10.7376 7.70027C10.7022 7.72635 10.6551 7.75223 10.6316 7.76507C10.5256 7.82987 10.4197 7.89466 10.3256 7.95966C10.2196 8.02426 10.1254 8.08926 10.0431 8.15405C9.96075 8.21885 9.87824 8.27061 9.80776 8.33541C9.79592 8.34845 9.78408 8.34845 9.77242 8.36149C9.70175 8.41324 9.61943 8.47804 9.54876 8.54284L9.52508 8.56892L9.34877 8.72439C9.3251 8.73723 9.30142 8.76331 9.27811 8.77615C9.21928 8.82811 9.16045 8.89291 9.10143 8.94466C9.08978 8.97074 9.06628 8.98358 9.05444 8.99662C8.98377 9.07446 8.91329 9.13906 8.84262 9.21689C8.83078 9.21689 8.83078 9.22993 8.81894 9.24297C8.74845 9.30777 8.67778 9.38541 8.60712 9.46324C8.59546 9.47628 8.59546 9.48932 8.58362 9.48932C8.52189 9.55534 8.463 9.62449 8.40713 9.69656C8.38345 9.72264 8.3483 9.74851 8.32481 9.77439C8.26597 9.85223 8.19531 9.92987 8.12464 10.0077C8.1128 10.0338 8.0893 10.0466 8.07765 10.0725C7.98348 10.1762 7.90097 10.2799 7.80681 10.3836L7.77166 10.4226C7.58333 10.6428 7.38316 10.8633 7.17134 11.0577C6.96266 11.2628 6.74251 11.4533 6.51219 11.628C6.28394 11.8044 6.0483 11.9688 5.80604 12.1207C5.56583 12.2659 5.31827 12.3958 5.06457 12.5097C4.81425 12.6268 4.55897 12.7306 4.2996 12.8207C3.80528 12.9374 3.29912 13.1577 2.86363 13.1966C2.76947 13.1966 2.66365 13.2227 2.56948 13.2355C2.46348 13.2616 2.36932 13.2875 2.27515 13.3134L1.99284 13.4301C1.89849 13.4689 1.80433 13.5208 1.71017 13.5726C1.62784 13.6374 1.53368 13.6893 1.45135 13.7541C1.36884 13.8189 1.28652 13.8966 1.21585 13.9746C1.13352 14.0394 1.0512 14.1301 0.980528 14.2079C0.90986 14.2986 0.839373 14.3764 0.780361 14.4671C0.721531 14.5708 0.651044 14.6617 0.603871 14.7652C0.545041 14.8561 0.486211 14.9598 0.43922 15.0635C0.391864 15.1801 0.345055 15.2838 0.309721 15.4005C0.272568 15.5122 0.237228 15.6245 0.203718 15.7376C0.180222 15.8413 0.156726 15.945 0.144888 16.0485C0.144888 16.0618 0.133049 16.0746 0.133049 16.0876C0.109553 16.2042 0.109553 16.3599 0.0977144 16.4375C0.0860576 16.5284 0.0742188 16.606 0.0742188 16.6969C0.0742188 16.7487 0.0742188 16.8134 0.0860576 16.8654C0.0978965 16.9561 0.109735 17.0339 0.133231 17.1118C0.156726 17.1894 0.180222 17.2672 0.215556 17.3451V17.3579C0.250891 17.4357 0.297882 17.5136 0.344873 17.5914C0.392229 17.6691 0.43922 17.7469 0.497867 17.8247C0.55688 17.8895 0.627548 17.9672 0.698217 18.0322C0.768704 18.1098 0.839373 18.1746 0.921698 18.2396C1.20419 18.5118 1.27486 18.6025 1.63968 18.8099C1.69851 18.8489 1.75734 18.8747 1.82801 18.9136C1.83985 18.9136 1.8515 18.9265 1.86334 18.9265C1.86334 18.9526 1.86334 18.9654 1.875 18.9915C1.88684 19.0952 1.91033 19.1989 1.93401 19.3024C1.95641 19.4092 1.98788 19.5133 2.02799 19.6136C2.06333 19.6914 2.08701 19.7693 2.12216 19.8471C2.134 19.873 2.14584 19.8989 2.15749 19.9119C2.20467 20.0156 2.25166 20.1063 2.29883 20.197L2.47532 20.4692C2.53415 20.547 2.60464 20.6377 2.67549 20.7155C2.74597 20.7934 2.81664 20.858 2.89897 20.936C2.89897 20.936 2.91081 20.9489 2.92265 20.9489C2.99313 21.0137 3.0638 21.0786 3.13447 21.1304C3.2168 21.1952 3.29912 21.2472 3.39329 21.2989C3.47579 21.3509 3.56996 21.4026 3.66412 21.4414C3.73461 21.4805 3.81712 21.5064 3.89944 21.5322C3.91128 21.5453 3.92294 21.5453 3.94643 21.5583C3.99379 21.5712 4.05244 21.5842 4.09943 21.597C4.06428 22.2972 4.05244 22.9582 4.14678 23.1915C4.25242 23.4509 4.77042 22.6601 5.28823 21.7527C5.21756 22.647 5.17057 23.6972 5.28823 24.0082C5.41773 24.3324 6.12387 23.3213 6.73585 22.2063C15.0806 20.0804 22.6955 26.4326 23.4958 35.4031C23.3428 34.003 21.7774 33.2253 21.0594 33.4197C20.7064 34.379 20.1061 35.6105 19.141 36.3755C19.2253 35.5098 19.1856 34.6349 19.0233 33.7828C18.7645 34.9754 18.2583 36.0902 17.5638 37.0495C16.4459 37.1402 15.3278 36.544 14.7393 35.6493C14.6921 35.6105 14.6804 35.5329 14.6451 35.4807C14.6098 35.3901 14.5744 35.2994 14.5509 35.2087C14.5166 35.1218 14.4928 35.0303 14.4803 34.9365C14.4684 34.8456 14.4684 34.7549 14.4684 34.6512V34.4566C14.4803 34.3659 14.5038 34.2753 14.5273 34.1846C14.5509 34.0937 14.5744 34.003 14.6098 33.9124C14.6568 33.8215 14.6921 33.7308 14.7509 33.6401C14.9511 33.0178 14.9511 32.5123 14.5863 32.2142C14.5156 32.1633 14.4407 32.1198 14.3626 32.0844C14.3154 32.0716 14.2566 32.0457 14.2096 32.0326C14.1743 32.0196 14.1508 32.0066 14.1155 31.9937C14.033 31.9676 13.9506 31.9418 13.8683 31.9289C13.788 31.9033 13.7048 31.8902 13.6211 31.89C13.5386 31.877 13.4445 31.8639 13.3621 31.8639C13.3033 31.8639 13.2445 31.8772 13.1855 31.8772C13.0915 31.8772 13.0092 31.89 12.9268 31.9159C12.8443 31.9289 12.762 31.942 12.6795 31.9678C12.5972 31.9939 12.5147 32.0198 12.4323 32.0585C12.35 32.0974 12.2793 32.1364 12.197 32.1753C12.1264 32.2142 12.0557 32.2659 11.9734 32.3049C9.23112 34.2753 10.8671 38.8903 12.7383 40.2256C12.0322 40.368 11.3142 40.5366 11.1142 40.7051L11.0905 40.7311C11.5969 41.0682 12.1264 41.3534 12.6795 41.5998C13.4328 41.8718 14.2331 42.1182 14.5863 42.2219V42.2349C15.5614 42.4552 16.5585 42.5336 17.5522 42.4682C22.766 42.0664 27.0384 37.6977 27.8152 31.942C27.8389 32.0585 27.8624 32.1622 27.8859 32.279C27.9212 32.5123 27.9682 32.7584 27.9917 33.005V33.0178C28.0154 33.1346 28.027 33.2514 28.0389 33.3549V33.407C28.0507 33.5234 28.0625 33.6401 28.0625 33.7441C28.0742 33.8865 28.0859 34.0289 28.0859 34.1718V34.3792C28.0859 34.444 28.0977 34.5216 28.0977 34.5864C28.0977 34.6643 28.0859 34.7421 28.0859 34.8199V35.0013C28.0859 35.0922 28.074 35.1698 28.074 35.2607C28.074 35.3124 28.074 35.3644 28.0624 35.4292C28.0624 35.5199 28.0505 35.6105 28.0505 35.7143C28.0387 35.7532 28.0387 35.7921 28.0387 35.831C28.027 35.9347 28.0152 36.0256 28.0033 36.1291C28.0033 36.168 28.0033 36.207 27.9917 36.2459C27.9798 36.3755 27.9564 36.4922 27.9445 36.6218V36.6477C27.921 36.7645 27.8975 36.8941 27.8738 37.0108V37.0495L27.8034 37.3996C27.8034 37.4126 27.7915 37.4385 27.7915 37.4516C27.7678 37.5681 27.7443 37.6849 27.7092 37.8014V37.8403C27.6739 37.9701 27.6385 38.0867 27.615 38.2034C27.6032 38.2163 27.6032 38.2293 27.6032 38.2293L27.4972 38.6181C27.4502 38.7479 27.4149 38.8645 27.3679 38.9941C27.3207 39.1238 27.2854 39.2534 27.2384 39.37C27.1912 39.4998 27.1442 39.6164 27.097 39.7459H27.0854C27.038 39.8627 26.9912 39.9923 26.9324 40.1091C26.9205 40.148 26.9087 40.1739 26.8971 40.1997C26.8852 40.2128 26.8852 40.2258 26.8734 40.2387C26.1084 41.9368 24.9786 43.4276 23.5661 44.5943C23.472 44.6591 23.3778 44.7368 23.2838 44.8148C23.2602 44.8407 23.2248 44.8535 23.2013 44.8796C23.119 44.9444 23.0365 45.0092 22.9425 45.074L22.9777 45.1518H22.9895L23.4838 45.074H23.4957C23.8016 45.022 24.1076 44.9572 24.4136 44.8924C24.496 44.8794 24.5903 44.8535 24.6726 44.8276C24.7315 44.8146 24.7784 44.8018 24.8373 44.7887C24.9198 44.7759 25.0021 44.7498 25.0844 44.737C25.1551 44.7109 25.2258 44.698 25.2964 44.6722C26.4734 44.361 27.615 43.9331 28.7097 43.4276C26.8382 46.2407 24.3311 48.5093 21.4005 50C22.7542 49.8963 24.1076 49.6501 25.4141 49.2353C30.1573 47.6926 34.1472 44.1795 36.5362 39.4478C36.0513 42.4493 34.9702 45.2956 33.3704 47.7832C34.5109 46.9545 35.5648 45.9894 36.5127 44.9055C39.1492 41.872 40.8793 38.0219 41.4678 33.8865C41.8693 35.9381 41.9844 38.0451 41.8091 40.1349C50.3066 27.0807 42.5152 13.5469 39.255 9.98203C39.2433 9.95595 39.2315 9.94311 39.2315 9.91723C39.2198 9.93007 39.2198 9.93007 39.2198 9.94311C39.2198 9.93007 39.2198 9.93007 39.208 9.91703C39.208 10.0727 39.1962 10.2282 39.1843 10.3839C39.1492 10.682 39.1138 10.9672 39.0667 11.2525C39.0078 11.5376 38.9373 11.8228 38.8667 12.1079C38.7829 12.3886 38.6888 12.6654 38.5844 12.9376C38.4761 13.2063 38.3582 13.4701 38.231 13.7284C38.1017 13.9746 37.9604 14.234 37.8074 14.4673C37.656 14.7084 37.4949 14.942 37.3247 15.1674C37.1482 15.4007 36.9601 15.6082 36.7717 15.8154C36.6609 15.9272 36.5471 16.0353 36.4304 16.1396C36.3363 16.2303 36.2537 16.3081 36.1596 16.3988C35.9478 16.5803 35.7359 16.7489 35.5006 16.9043C35.277 17.06 35.0416 17.2155 34.8061 17.3453C34.559 17.4749 34.3118 17.5914 34.0648 17.7082C33.8175 17.8119 33.5585 17.9028 33.2997 17.9804C33.0394 18.0576 32.7763 18.1225 32.511 18.175C32.2404 18.2268 31.9697 18.2526 31.7107 18.2785C31.5224 18.2916 31.3341 18.3046 31.1457 18.3046C30.8751 18.3046 30.6044 18.2785 30.3454 18.2524C30.0748 18.2268 29.8041 18.1878 29.5451 18.123C29.2745 18.0709 29.0155 17.9932 28.7565 17.9026H28.7448C29.0038 17.8765 29.2626 17.8506 29.5216 17.7989C29.7872 17.7477 30.0503 17.6828 30.3103 17.6043C30.5691 17.5273 30.8244 17.4365 31.0753 17.3322C31.3341 17.2285 31.5812 17.0989 31.8165 16.9691C32.0639 16.8395 32.2876 16.6969 32.5229 16.5414C32.7465 16.3729 32.97 16.2044 33.182 16.0228C33.3929 15.8423 33.5933 15.6474 33.7822 15.4395C33.9823 15.2449 34.1588 15.0246 34.3353 14.8043C34.5074 14.5773 34.6722 14.3438 34.8296 14.1042C34.8533 14.0655 34.8768 14.0135 34.9003 13.9746C35.018 13.7672 35.1356 13.5597 35.2416 13.3523C35.3711 13.0953 35.4889 12.8315 35.5948 12.5617C35.7011 12.2903 35.7953 12.0134 35.8771 11.732C35.9596 11.4597 36.0184 11.1745 36.0773 10.8894C36.1244 10.5913 36.1714 10.306 36.1949 10.0207C36.2186 9.72264 36.2421 9.42453 36.2421 9.13926C36.2421 8.93182 36.2303 8.72439 36.2184 8.51696C36.1951 8.21885 36.1598 7.93378 36.1244 7.64831C36.078 7.35592 36.0191 7.06611 35.9478 6.77986C35.8654 6.50764 35.7831 6.22257 35.6889 5.95034C35.5948 5.67811 35.4771 5.40588 35.3593 5.14649C35.23 4.8873 35.1005 4.62811 34.9591 4.38176C34.8089 4.13883 34.652 3.90106 34.4885 3.66878C34.3112 3.44516 34.1307 3.22473 33.947 3.00757C33.8478 2.89635 33.7458 2.78831 33.641 2.68358C33.1137 2.23256 32.5679 1.80862 32.0051 1.41311C31.9227 1.36115 31.8521 1.32243 31.7696 1.28351C31.3812 1.01128 31.0164 0.868447 30.6516 0.738852Z" fill="#E0234E"/>
</svg>
