<svg width="46" height="51" viewBox="0 0 46 51" fill="none" xmlns="http://www.w3.org/2000/svg">
<path d="M23.0958 50.9294C22.4019 50.9294 21.7542 50.7422 21.1521 50.4146L14.9964 46.7188C14.0708 46.2039 14.5336 46.0167 14.8109 45.9231C16.0607 45.5019 16.2924 45.4083 17.5884 44.6595C17.727 44.5659 17.9119 44.6127 18.0505 44.7063L22.7723 47.5605C22.9571 47.6541 23.1888 47.6541 23.3275 47.5605L41.7946 36.7523C41.9801 36.6587 42.0726 36.4721 42.0726 36.2381V14.6686C42.0726 14.4346 41.9801 14.2474 41.7953 14.1538L23.3275 3.39235C23.1426 3.29875 22.9103 3.29875 22.7723 3.39235L4.30449 14.1538C4.11834 14.2474 4.02591 14.4813 4.02591 14.6686V36.2381C4.02591 36.4247 4.11898 36.6587 4.30385 36.7523L9.34909 39.7C12.0797 41.104 13.7922 39.466 13.7922 37.8287V16.5399C13.7922 16.2591 14.0233 15.9783 14.3475 15.9783H16.7083C16.9856 15.9783 17.2636 16.2123 17.2636 16.5399V37.8287C17.2636 41.5252 15.2737 43.6774 11.8017 43.6774C10.7375 43.6774 9.90432 43.6774 7.5441 42.5074L2.68372 39.7C2.09276 39.3531 1.60221 38.855 1.2612 38.2556C0.920195 37.6563 0.740709 36.9767 0.740723 36.285V14.7153C0.740661 14.0234 0.920191 13.3437 1.26132 12.7442C1.60245 12.1447 2.09319 11.6465 2.68436 11.2996L21.1515 0.4914C22.3095 -0.1638 23.8827 -0.1638 25.04 0.4914L43.5072 11.2996C44.0985 11.6464 44.5893 12.1446 44.9306 12.7441C45.2718 13.3436 45.4515 14.0234 45.4515 14.7153V36.285C45.4513 36.9768 45.2717 37.6565 44.9304 38.2559C44.5892 38.8552 44.0984 39.3533 43.5072 39.7L25.04 50.5082C24.4848 50.7422 23.7903 50.9294 23.0958 50.9294Z" fill="#5FA04E"/>
<path d="M28.8357 36.0977C20.735 36.0977 19.0693 32.3544 19.0693 29.1726C19.0693 28.8918 19.3004 28.611 19.6246 28.611H22.0317C22.3096 28.611 22.5407 28.7982 22.5407 29.079C22.911 31.5588 23.9753 32.7756 28.8819 32.7756C32.7698 32.7756 34.4355 31.8864 34.4355 29.781C34.4355 28.5649 33.9733 27.675 27.9094 27.0673C22.8642 26.5525 19.7176 25.4293 19.7176 21.359C19.7176 17.5695 22.8648 15.3237 28.1411 15.3237C34.0658 15.3237 36.9812 17.3823 37.3522 21.8738C37.3522 22.0142 37.3054 22.1546 37.213 22.295C37.1205 22.3886 36.9819 22.4822 36.8426 22.4822H34.3893C34.2706 22.4782 34.1565 22.4348 34.0645 22.3587C33.9725 22.2826 33.9078 22.178 33.8803 22.061C33.325 19.487 31.8904 18.6452 28.0949 18.6452C23.8366 18.6452 23.3276 20.1428 23.3276 21.2654C23.3276 22.6226 23.9291 23.0438 29.6688 23.7919C35.3617 24.5407 38.0455 25.6171 38.0455 29.6406C38.0455 33.7584 34.6672 36.0977 28.8357 36.0977Z" fill="#5FA04E"/>
</svg>
