<svg width="58" height="58" viewBox="0 0 58 58" fill="none" xmlns="http://www.w3.org/2000/svg">
<g clip-path="url(#clip0_79_1378)">
<path d="M43.0082 42.2221C43.3775 39.1477 43.2665 38.6991 45.5548 39.1953L46.137 39.2474C47.8974 39.3267 50.1993 38.9642 51.5745 38.3366C54.4858 36.9863 56.2122 34.7297 53.3417 35.3233C46.794 36.6736 46.3183 34.4556 46.3183 34.4556C53.2352 24.1923 56.1284 11.165 53.6294 7.97722C46.8235 -0.722782 35.04 3.39159 34.8429 3.50034L34.7794 3.51167C33.488 3.2398 32.0607 3.0812 30.4068 3.05855C27.4433 3.01323 25.1958 3.83566 23.4876 5.12933C23.4876 5.12933 2.46936 -3.52989 3.44584 16.0202C3.65428 20.1799 9.40444 47.5124 16.2693 39.2428C18.7819 36.2205 21.2061 33.6671 21.2061 33.6671C22.4069 34.4669 23.8501 34.8747 25.3612 34.7275L25.479 34.6278C25.4442 35.0194 25.4602 35.4139 25.5266 35.8014C23.7594 37.777 24.2805 38.1236 20.7462 38.8509C17.171 39.5872 19.2735 40.899 20.6419 41.2434C22.3049 41.6603 26.1519 42.2493 28.7529 38.6107L28.6487 39.0253C29.3419 39.5804 29.2944 43.0128 29.3963 45.4642C29.4983 47.9157 29.6591 50.2062 30.1598 51.5542C30.6605 52.9023 31.2473 56.38 35.8919 55.4058C39.7729 54.5743 42.7408 53.3758 43.0127 42.2425" fill="black"/>
<path d="M43.0082 42.2221C43.3775 39.1477 43.2665 38.6991 45.5548 39.1953L46.137 39.2474C47.8974 39.3267 50.1993 38.9642 51.5745 38.3366C54.4858 36.9863 56.2123 34.7297 53.3417 35.3233C46.794 36.6736 46.3183 34.4556 46.3183 34.4556C53.2352 24.1923 56.1284 11.165 53.6294 7.97722C46.8235 -0.722782 35.04 3.39159 34.8429 3.50034L34.7794 3.51167C33.488 3.2398 32.0607 3.0812 30.4068 3.05855C27.4433 3.01323 25.1958 3.83566 23.4876 5.12933C23.4876 5.12933 2.46936 -3.52989 3.44584 16.0202C3.65428 20.1799 9.40444 47.5124 16.2693 39.2428C18.7819 36.2205 21.2061 33.6671 21.2061 33.6671C22.4069 34.4669 23.8501 34.8747 25.3612 34.7275L25.479 34.6278C25.4442 35.0194 25.4602 35.4139 25.5266 35.8014C23.7594 37.777 24.2805 38.1236 20.7462 38.8509C17.171 39.5872 19.2735 40.899 20.6419 41.2434C22.3049 41.6603 26.1519 42.2493 28.7529 38.6107L28.6487 39.0253C29.3419 39.5804 29.2944 43.0128 29.3963 45.4642C29.4983 47.9157 29.6591 50.2062 30.1598 51.5542C30.6605 52.9023 31.2473 56.38 35.8919 55.4058C39.7729 54.5743 42.7408 53.3758 43.0127 42.2425" stroke="black" stroke-width="5.3725"/>
<path d="M53.3214 35.3434C46.7738 36.6938 46.298 34.4757 46.298 34.4757C53.215 24.2124 56.1082 11.1851 53.6115 7.99735C46.8055 -0.702653 35.022 3.41399 34.8249 3.52047L34.7615 3.5318C33.3222 3.24302 31.8589 3.09054 30.3911 3.07641C27.4276 3.0311 25.1801 3.85352 23.4718 5.14719C23.4718 5.14719 2.45137 -3.51203 3.43012 16.0381C3.63856 20.1977 9.38871 47.5302 16.2536 39.2607C18.782 36.2202 21.2062 33.6669 21.2062 33.6669C22.407 34.4666 23.8502 34.8745 25.3614 34.7272L25.4792 34.6275C25.4446 35.0191 25.4606 35.4136 25.5268 35.8011C23.7596 37.7767 24.2807 38.1234 20.7463 38.8506C17.1711 39.587 19.2736 40.8988 20.6421 41.2431C22.305 41.66 26.1521 42.2491 28.753 38.6105L28.6488 39.0251C29.3421 39.5802 29.8269 42.6342 29.7454 45.4028C29.6638 48.1714 29.6094 50.07 30.1532 51.5563C30.6969 53.0425 31.2407 56.382 35.8852 55.4078C39.7662 54.5763 41.7758 52.4172 42.059 48.8239C42.2584 46.2683 42.707 46.6444 42.7387 44.3606L43.1012 43.2777C43.5158 39.8113 43.1692 38.6943 45.5594 39.2154L46.1417 39.2675C47.9021 39.3468 50.2062 38.9843 51.5565 38.3567C54.4679 37.0064 56.192 34.7498 53.3214 35.3434Z" fill="#336791"/>
<path d="M29.0316 37.3079C28.8504 43.7559 29.0769 50.2492 29.7068 51.8079C30.3366 53.3667 31.6892 56.4525 36.336 55.4601C40.217 54.6286 41.6308 53.0178 42.2425 49.463L43.6766 38.0964M23.4627 4.98426C23.4627 4.98426 2.42865 -3.61605 3.4074 15.934C3.61583 20.0937 9.36599 47.4262 16.2308 39.1567C18.7366 36.1366 21.0022 33.7736 21.0022 33.7736M34.8226 3.41418C34.0976 3.64075 46.5222 -1.1284 53.5865 7.89559C56.0786 11.0833 53.19 24.1107 46.273 34.3739" stroke="white" stroke-width="1.79" stroke-linecap="round" stroke-linejoin="round"/>
<path d="M46.2753 34.3692C46.2753 34.3692 46.7284 36.5895 53.2987 35.2347C56.1693 34.6411 54.4406 36.8976 51.5315 38.2479C49.1436 39.3581 43.7876 39.6413 43.6993 38.112C43.4727 34.1585 46.5177 35.3593 46.2979 34.3692C46.0986 33.4765 44.7347 32.602 43.8375 30.4179C43.0513 28.5148 33.0531 13.9015 46.6106 16.0697C47.109 15.9678 43.0762 3.15567 30.3887 2.96989C17.7012 2.78411 18.1022 18.5687 18.1022 18.5687" stroke="white" stroke-width="1.79" stroke-linecap="round" stroke-linejoin="bevel"/>
<path d="M25.4814 35.7242C23.7142 37.6998 24.2353 38.0465 20.701 38.7737C17.1258 39.5101 19.2283 40.8218 20.5967 41.1662C22.2597 41.5831 26.1067 42.1722 28.7077 38.5313C29.5006 37.4211 28.7031 35.654 27.6156 35.2054C27.09 34.9879 26.3877 34.716 25.486 35.7265L25.4814 35.7242Z" stroke="white" stroke-width="1.79" stroke-linejoin="round"/>
<path d="M25.3658 35.6901C25.1846 34.5278 25.7464 33.1481 26.3468 31.5304C27.2486 29.1062 29.3284 26.682 27.6654 18.9856C26.4261 13.2536 18.1045 17.7917 18.1045 18.5688C18.1045 19.3459 18.4806 22.511 17.9686 26.1926C17.2957 31.0003 21.0271 35.0648 25.3228 34.6502" stroke="white" stroke-width="1.79" stroke-linecap="round" stroke-linejoin="round"/>
<path d="M23.3858 18.4532C23.3473 18.7183 23.8729 19.4274 24.5548 19.5226C25.2368 19.6177 25.8191 19.0649 25.8576 18.7976C25.8961 18.5302 25.3705 18.2402 24.6885 18.1451C24.0066 18.0499 23.4198 18.1904 23.3858 18.4532Z" fill="white" stroke="white" stroke-width="0.5975"/>
<path d="M44.1479 17.9117C44.1842 18.1768 43.6608 18.8859 42.9789 18.9811C42.2969 19.0762 41.7101 18.5234 41.6761 18.2561C41.6421 17.9887 42.1632 17.6987 42.8452 17.6036C43.5271 17.5084 44.1139 17.6489 44.1479 17.9117Z" fill="white" stroke="white" stroke-width="0.2975"/>
<path d="M46.5857 16.0747C46.699 18.1591 46.1371 19.5751 46.0646 21.7931C45.9604 25.0149 47.6007 28.7033 45.1289 32.3963" stroke="white" stroke-width="1.79" stroke-linecap="round" stroke-linejoin="round"/>
</g>
<defs>
<clipPath id="clip0_79_1378">
<rect width="58" height="58" fill="white"/>
</clipPath>
</defs>
</svg>
