<svg xmlns="http://www.w3.org/2000/svg" width="1024" height="720" viewBox="0 0 1024 720"><rect width="100%" height="100%" fill="#DDDDDD"/><path fill="#999999" d="M248.51 392.28h15.6v11.1h-48v-11.1h17.58V341.7q0-3 .18-6.18l-12.48 10.44q-1.08.84-2.13 1.05t-1.98.03-1.65-.63-1.08-.99l-4.68-6.42 26.46-22.5h12.18zm89.7-32.28q0 11.34-2.43 19.71t-6.72 13.83-10.14 8.13-12.63 2.67-12.57-2.67-10.05-8.13-6.66-13.83-2.4-19.71q0-11.4 2.4-19.74t6.66-13.8 10.05-8.13 12.57-2.67 12.63 2.67 10.14 8.13 6.72 13.8 2.43 19.74m-15.3 0q0-9.42-1.38-15.6t-3.69-9.84-5.31-5.13-6.24-1.47q-3.18 0-6.15 1.47t-5.25 5.13-3.63 9.84-1.35 15.6 1.35 15.6 3.63 9.84 5.25 5.13 6.15 1.47q3.24 0 6.24-1.47t5.31-5.13 3.69-9.84 1.38-15.6m54.9 29.58h22.26q2.4 0 3.81 1.35t1.41 3.57v8.88h-59.52v-4.92q0-1.5.63-3.15t2.01-2.97l26.34-26.4q3.3-3.36 5.91-6.42t4.35-6.06 2.67-6.09.93-6.51q0-3.12-.9-5.49t-2.55-3.99-3.96-2.43-5.19-.81q-2.64 0-4.89.75t-3.99 2.1-2.94 3.15-1.8 3.96q-1.02 2.76-2.64 3.66t-4.68.42l-7.8-1.38q.9-6.24 3.48-10.95t6.45-7.86 8.88-4.74 10.77-1.59q6 0 10.98 1.77t8.52 5.01 5.52 7.8 1.98 10.14q0 4.8-1.41 8.88t-3.78 7.8-5.55 7.2-6.66 7.08l-19.56 19.98q2.82-.84 5.61-1.29t5.31-.45m49.32-18.9h26.4V342.3q0-4.02.54-8.88zm39.3 0h10.92v8.58q0 1.2-.78 2.07t-2.22.87h-7.92v21.18h-12.9V382.2h-36.6q-1.5 0-2.64-.93t-1.44-2.31l-1.56-7.5 41.1-54.9h14.04zm106.26 12.84-7.86 7.74-20.34-20.34-20.52 20.46-7.86-7.74 20.52-20.58-19.56-19.56 7.8-7.8 19.56 19.56 19.44-19.44 7.92 7.8-19.5 19.5zm41.22-66.9h59.94v6.42q0 2.88-.6 4.65t-1.2 2.97l-32.88 67.68q-1.02 2.1-2.88 3.57t-4.98 1.47h-10.74l33.54-66.3q1.14-2.04 2.25-3.75t2.49-3.27h-41.52q-1.38 0-2.4-1.02t-1.02-2.4zm100.62 72.96h22.26q2.4 0 3.81 1.35t1.41 3.57v8.88h-59.52v-4.92q0-1.5.63-3.15t2.01-2.97l26.34-26.4q3.3-3.36 5.91-6.42t4.35-6.06 2.67-6.09.93-6.51q0-3.12-.9-5.49t-2.55-3.99-3.96-2.43-5.19-.81q-2.64 0-4.89.75t-3.99 2.1-2.94 3.15-1.8 3.96q-1.02 2.76-2.64 3.66t-4.68.42l-7.8-1.38q.9-6.24 3.48-10.95t6.45-7.86 8.88-4.74 10.77-1.59q6 0 10.98 1.77t8.52 5.01 5.52 7.8 1.98 10.14q0 4.8-1.41 8.88t-3.78 7.8-5.55 7.2-6.66 7.08l-19.56 19.98q2.82-.84 5.61-1.29t5.31-.45m99.6-29.58q0 11.34-2.43 19.71t-6.72 13.83-10.14 8.13-12.63 2.67-12.57-2.67-10.05-8.13-6.66-13.83-2.4-19.71q0-11.4 2.4-19.74t6.66-13.8 10.05-8.13 12.57-2.67 12.63 2.67 10.14 8.13 6.72 13.8 2.43 19.74m-15.3 0q0-9.42-1.38-15.6t-3.69-9.84-5.31-5.13-6.24-1.47q-3.18 0-6.15 1.47t-5.25 5.13-3.63 9.84-1.35 15.6 1.35 15.6 3.63 9.84 5.25 5.13 6.15 1.47q3.24 0 6.24-1.47t5.31-5.13 3.69-9.84 1.38-15.6"/></svg>